<?xml version="1.0" encoding="UTF-8"?>
<!DOCTYPE svg PUBLIC "-//W3C//DTD SVG 1.1//EN" "http://www.w3.org/Graphics/SVG/1.1/DTD/svg11.dtd">
<!-- Creator: CorelDRAW X7 -->
<svg xmlns="http://www.w3.org/2000/svg" xml:space="preserve" width="5.82677in" height="2.04666in" version="1.1" style="shape-rendering:geometricPrecision; text-rendering:geometricPrecision; image-rendering:optimizeQuality; fill-rule:evenodd; clip-rule:evenodd"
viewBox="0 0 5827 2047"
 xmlns:xlink="http://www.w3.org/1999/xlink">
 <defs>
  <style type="text/css">
   <![CDATA[
    .fil1 {fill:#00A4E2}
    .fil0 {fill:white}
   ]]>
  </style>
 </defs>
 <g id="Layer_x0020_1">
  <metadata id="CorelCorpID_0Corel-Layer"/>
  <polygon class="fil0" points="0,0 5827,0 5827,2047 0,2047 "/>
  <path class="fil1" d="M2118 512l-126 0 0 86 115 0c113,0 225,63 282,121 34,34 62,75 84,118 12,25 21,41 30,71 35,119 5,270 -66,364 -16,21 -28,35 -47,54 -16,17 -35,34 -55,46 -11,8 -20,12 -32,18 -12,6 -20,12 -33,19 -60,30 -117,39 -192,39l0 -79c53,-5 104,-9 144,-27 80,-36 140,-89 180,-167 48,-98 46,-211 -3,-308 -22,-43 -48,-71 -81,-103 -76,-74 -177,-86 -283,-86l-213 0 3 662c0,29 0,58 0,87 0,33 -3,52 -3,86 0,112 -18,180 -108,247 -99,73 -244,58 -329,-27 -6,-6 -9,-12 -16,-20 -55,-56 -61,-137 -61,-218l-87 0c0,65 2,113 20,165 17,54 55,112 96,146 84,67 129,87 246,87 55,0 116,-23 152,-43 83,-48 144,-127 167,-224 7,-27 10,-147 10,-189l0 -672c41,0 198,0 229,6 220,43 282,325 109,455 -82,62 -149,56 -258,56l0 253c113,0 214,6 314,-47 14,-7 23,-13 38,-20 43,-22 72,-44 106,-78 81,-82 153,-209 153,-332 0,-160 -5,-160 -72,-297 -19,-38 -89,-116 -125,-143 -7,-6 -12,-8 -19,-13 -12,-10 -21,-16 -35,-24 -68,-36 -144,-69 -234,-69zm-531 -359c-78,0 -106,3 -176,38 -73,36 -140,106 -166,182 -17,49 -24,85 -24,149l0 760c-53,0 -168,1 -216,-4 -118,-13 -221,-126 -221,-238 0,-60 1,-91 32,-145 65,-112 165,-130 297,-130l29 0 0 -253c-127,0 -205,-8 -324,49 -74,36 -155,103 -200,172 -60,90 -90,190 -91,288l0 12c1,140 61,275 176,376 78,69 203,126 308,126l131 0 0 -87c-149,0 -218,8 -346,-77 -81,-54 -146,-151 -170,-246 -23,-90 -12,-191 22,-267 75,-166 220,-260 407,-260l0 80 -76 7c-81,14 -115,40 -170,84l-40 42c-13,16 -23,32 -34,50 -53,96 -51,228 1,324 28,49 44,67 83,102 30,27 74,52 119,65 35,10 83,15 120,17 54,3 190,0 250,0l0 -843c0,-114 40,-207 143,-259 179,-89 369,50 371,215 0,12 -1,25 0,37 0,14 3,17 3,32 115,0 84,14 84,-76 -2,-158 -156,-322 -322,-322zm-19 264c54,0 113,51 113,105l0 1002c0,41 -33,78 -69,94 -52,23 -103,5 -135,-31 -21,-25 -28,-61 -28,-106l0 -915c0,-49 6,-78 28,-106 17,-21 55,-43 91,-43zm-195 181l0 315c0,39 4,64 4,101 0,70 0,140 0,210 0,121 -6,184 0,308 5,122 168,236 307,130 35,-27 73,-80 73,-141l0 -988c0,-113 -97,-203 -221,-187 -76,9 -143,76 -157,153 -5,25 -6,72 -6,99z"/>
 </g>
</svg>
