<?xml version="1.0" encoding="UTF-8"?>
<!DOCTYPE svg PUBLIC "-//W3C//DTD SVG 1.1//EN" "http://www.w3.org/Graphics/SVG/1.1/DTD/svg11.dtd">
<!-- Creator: CorelDRAW X7 -->
<svg xmlns="http://www.w3.org/2000/svg" xml:space="preserve" width="5.82677in" height="2.04666in" version="1.1" style="shape-rendering:geometricPrecision; text-rendering:geometricPrecision; image-rendering:optimizeQuality; fill-rule:evenodd; clip-rule:evenodd"
viewBox="0 0 5827 2047"
 xmlns:xlink="http://www.w3.org/1999/xlink">
 <defs>
  <style type="text/css">
   <![CDATA[
    .fil1 {fill:#00A4E2}
    .fil0 {fill:white}
   ]]>
  </style>
 </defs>
 <g id="Layer_x0020_1">
  <metadata id="CorelCorpID_0Corel-Layer"/>
  <polygon class="fil0" points="0,0 5827,0 5827,2047 0,2047 "/>
  <path class="fil1" d="M3124 573l-193 0 0 454 125 0 0 -126 68 0c96,0 168,-69 168,-164 0,-96 -72,-164 -168,-164l0 0zm-1006 -61l-126 0 0 86 115 0c113,0 225,63 282,121 34,34 62,75 84,118 12,25 21,41 30,71 35,119 5,270 -66,364 -16,21 -28,35 -47,54 -16,17 -35,34 -55,46 -11,8 -20,12 -32,18 -12,6 -20,12 -33,19 -60,30 -117,39 -192,39l0 -79c53,-5 104,-9 144,-27 80,-36 140,-89 180,-167 48,-98 46,-211 -3,-308 -22,-43 -48,-71 -81,-103 -76,-74 -177,-86 -283,-86l-213 0 3 662c0,29 0,58 0,87 0,33 -3,52 -3,86 0,112 -18,180 -108,247 -99,73 -244,58 -329,-27 -6,-6 -9,-12 -16,-20 -55,-56 -61,-137 -61,-218l-87 0c0,65 2,113 20,165 17,54 55,112 96,146 84,67 129,87 246,87 55,0 116,-23 152,-43 83,-48 144,-127 167,-224 7,-27 10,-147 10,-189l0 -672c41,0 198,0 229,6 220,43 282,325 109,455 -82,62 -149,56 -258,56l0 253c113,0 214,6 314,-47 14,-7 23,-13 38,-20 43,-22 72,-44 106,-78 81,-82 153,-209 153,-332 0,-160 -5,-160 -72,-297 -19,-38 -89,-116 -125,-143 -7,-6 -12,-8 -19,-13 -12,-10 -21,-16 -35,-24 -68,-36 -144,-69 -234,-69zm-531 -359c-78,0 -106,3 -176,38 -73,36 -140,106 -166,182 -17,49 -24,85 -24,149l0 760c-53,0 -168,1 -216,-4 -118,-13 -221,-126 -221,-238 0,-60 1,-91 32,-145 65,-112 165,-130 297,-130l29 0 0 -253c-127,0 -205,-8 -324,49 -74,36 -155,103 -200,172 -60,90 -90,190 -91,288l0 12c1,140 61,275 176,376 78,69 203,126 308,126l131 0 0 -87c-149,0 -218,8 -346,-77 -81,-54 -146,-151 -170,-246 -23,-90 -12,-191 22,-267 75,-166 220,-260 407,-260l0 80 -76 7c-81,14 -115,40 -170,84l-40 42c-13,16 -23,32 -34,50 -53,96 -51,228 1,324 28,49 44,67 83,102 30,27 74,52 119,65 35,10 83,15 120,17 54,3 190,0 250,0l0 -843c0,-114 40,-207 143,-259 179,-89 369,50 371,215 0,12 -1,25 0,37 0,14 3,17 3,32 115,0 84,14 84,-76 -2,-158 -156,-322 -322,-322zm-19 264c54,0 113,51 113,105l0 1002c0,41 -33,78 -69,94 -52,23 -103,5 -135,-31 -21,-25 -28,-61 -28,-106l0 -915c0,-49 6,-78 28,-106 17,-21 55,-43 91,-43zm-195 181l0 315c0,39 4,64 4,101 0,70 0,140 0,210 0,121 -6,184 0,308 5,122 168,236 307,130 35,-27 73,-80 73,-141l0 -988c0,-113 -97,-203 -221,-187 -76,9 -143,76 -157,153 -5,25 -6,72 -6,99zm3902 767l0 72 -52 -72 -23 0 0 118 25 0 0 -74 54 74 21 0 0 -118 -25 0zm-299 120c36,0 63,-26 63,-61 0,-35 -27,-62 -63,-62 -36,0 -63,27 -63,62 0,35 27,61 63,61l0 0zm0 -24c-21,0 -37,-16 -37,-37 0,-21 16,-38 37,-38 21,0 37,16 37,38 0,21 -16,37 -37,37zm-250 22l25 0 0 -118 -25 0 0 118zm-159 -118l-91 0 0 24 33 0 0 94 25 0 0 -94 33 0 0 -24zm-254 118l28 0 -48 -118 -24 0 -47 118 28 0 8 -23 47 0 8 23zm-32 -87l16 42 -31 0 15 -42zm-263 -31l-45 0 0 118 45 0c34,0 60,-25 60,-59 0,-34 -25,-59 -60,-59zm-1 94l-18 0 0 -70 18 0c20,0 35,14 35,35 0,20 -15,35 -35,35l0 0zm-237 -94l0 72 -52 -72 -23 0 0 118 25 0 0 -74 53 74 22 0 0 -118 -25 0zm-291 120c28,0 49,-19 49,-47l0 -73 -26 0 0 72c0,15 -10,24 -23,24 -14,0 -23,-9 -23,-24l0 -72 -26 0 0 73c0,28 21,47 49,47zm-272 0c36,0 63,-26 63,-61 0,-35 -27,-62 -63,-62 -36,0 -63,27 -63,62 0,35 27,61 63,61l0 0zm0 -24c-21,0 -37,-16 -37,-37 0,-21 16,-38 37,-38 21,0 37,16 37,38 0,21 -16,37 -37,37zm-216 -72l0 -24 -70 0 0 118 25 0 0 -45 41 0 0 -23 -41 0 0 -26 45 0zm50 -340l-120 0 0 283 78 0 0 -79 42 0c60,0 105,-43 105,-102 0,-60 -45,-102 -105,-102l0 0zm-9 136l-33 0 0 -69 33 0c20,0 34,15 34,35 0,20 -14,34 -34,34l0 0zm290 154c91,0 156,-62 156,-149 0,-87 -65,-149 -156,-149 -91,0 -155,63 -155,149 0,87 64,149 155,149l0 0zm0 -73c-43,0 -74,-32 -74,-76 0,-44 31,-76 74,-76 43,0 75,32 75,76 0,44 -32,76 -75,76l0 0zm373 -217l0 148 -109 -148 -68 0 0 283 76 0 0 -154 112 154 64 0 0 -283 -75 0zm310 70l0 -70 -180 0 0 283 79 0 0 -100 91 0 0 -68 -91 0 0 -45 101 0zm210 213l85 0 -113 -283 -76 0 -111 283 83 0 16 -46 100 0 16 46zm-35 -108l-62 0 31 -87 31 87zm584 108l-42 -283 -78 0 -67 154 -67 -154 -78 0 -43 283 79 0 22 -163 75 163 23 0 75 -163 23 163 78 0zm39 0l79 0 0 -283 -79 0 0 283zm285 0l88 0 -57 -103c28,-17 45,-45 45,-80 0,-60 -44,-100 -105,-100l-122 0 0 283 78 0 0 -87 28 0 45 87zm-73 -214l35 0c22,0 34,13 34,31 0,17 -12,31 -34,31l-35 0 0 -62zm195 214l79 0 0 -283 -79 0 0 283zm-2111 -540l-53 0 0 -110 53 0c33,0 54,23 54,55 0,32 -21,55 -54,55l0 0zm483 235l140 0 -90 -165c45,-27 72,-72 72,-129 0,-95 -71,-160 -169,-160l-196 0 0 454 125 0 0 -139 45 0 73 139zm-118 -343l57 0c34,0 55,21 55,49 0,29 -21,50 -55,50l-57 0 0 -99zm313 343l127 0 0 -454 -127 0 0 454zm498 -454l0 238 -174 -238 -109 0 0 454 121 0 0 -247 180 247 103 0 0 -454 -121 0zm427 465c121,0 214,-81 231,-200l-128 0c-13,50 -52,83 -103,83 -64,0 -111,-51 -111,-121 0,-70 47,-122 111,-122 48,0 87,30 103,77l127 0c-19,-115 -111,-194 -230,-194 -138,0 -241,103 -241,239 0,136 103,238 241,238l0 0zm415 -120l0 -68 149 0 0 -102 -149 0 0 -67 166 0 0 -108 -290 0 0 454 296 0 0 -109 -172 0z"/>
 </g>
</svg>
